<svg xmlns="http://www.w3.org/2000/svg" viewBox="0 0 911.44 911.44"><g id="Layer_2" data-name="Layer 2"><g id="Layer_5" data-name="Layer 5"><path d="M622.24,571.53c-.53.45-1.06.92-1.61,1.35-32.54,25.42-66.81,39.65-102,42.31l-3.66.52-2,.28a441.91,441.91,0,0,1-62.17,4.46c-2.64,0-5.31,0-8-.07H441.4c-25,0-50.53-3.17-78-9.69l-.93-.22-2.32-.55-1-.84a194.5,194.5,0,0,1-50.35-21.62,117,117,0,0,1-22.7-17.93,166.35,166.35,0,0,0-1.05,19.58v.24a47.27,47.27,0,0,0,12.25,29c6.84,7.72,16.32,14.3,29,20.1,21,9.64,50.06,16.79,91.4,22.5a271.91,271.91,0,0,0,37.07,2.56c7.72,0,15.51-.34,23.15-1,64.09-5.66,106.34-18.67,129.16-39.77a51.37,51.37,0,0,0,16.21-39.7A115,115,0,0,0,622.24,571.53Z"/><circle cx="178.31" cy="535.46" r="31.21"/><circle cx="357.34" cy="361.26" r="31.19"/><path d="M357.34,402.45a41.18,41.18,0,0,1-38.67-55.37,109.27,109.27,0,0,0-48.14-11.22c-1.51,0-3,0-4.53.1-35.34,1.89-62.1,15.25-79.59,39.73-16.84,23.56-24.4,56.59-22.47,98.15v.06l.06.87c.55,8.79,1,15.69,1.85,21.41a41.06,41.06,0,0,1,12.46-1.93,41.7,41.7,0,0,1,5.39.36c8.76-25,19.77-46.71,56.41-46.71h1.36c6.55.51,13.94,9.65,20.85,25.76,7.08,16.53,13.78,40.71,19.37,69.92l0,.12,0,.13c3,11.5,14.45,24,32.35,35.14a176.33,176.33,0,0,0,34.62,16.34c-3.47-7.8-5.76-18.33-7.13-32.27a151.81,151.81,0,0,1,3.83-52.19c7.84-31.1,22-62.49,34.47-90.19,1.48-3.3,3-6.57,4.41-9.82q-4.87-6.32-9.63-12.23A41,41,0,0,1,357.34,402.45Z"/><path d="M733,501.43a31.34,31.34,0,1,0,31.34,31.33A31.37,31.37,0,0,0,733,501.43Z"/><path d="M714,464.14c4.84,6.88,8.84,16.23,12,27.9a42.1,42.1,0,0,1,7-.61,41.07,41.07,0,0,1,15.67,3.09,244.69,244.69,0,0,0,3.44-42.59v-.33c-3-35.82-14.43-65.6-33-86.12S675.44,334.15,646.39,334h-.14c-27.2.84-50.58,9-71.48,25a168.14,168.14,0,0,0-27.1,26.62,422.56,422.56,0,0,1,4.75,97.08c-3.91,53.39-12.48,92.25-26.87,121.69,30.49-3.88,60.34-17.1,88.92-39.44a45.12,45.12,0,0,0,13.75-17.88c4.59-10.83,7.77-23.36,10.84-35.49,8-31.4,15.49-61.06,45.47-63.15h.28C697,448.48,706.57,453.6,714,464.14Z"/><path d="M539.2,396.42q-.57-4-1.22-8a2,2,0,0,0,0-.24q-.6-3.71-1.28-7.38l-.15-.85c-.41-2.23-.85-4.44-1.3-6.64-.09-.45-.17-.9-.26-1.34q-.8-3.82-1.67-7.61v0a310.93,310.93,0,0,0-10.34-35.52c-.4-1.1-.8-2.18-1.2-3.25a217.22,217.22,0,0,0-10.6-23.9,137.24,137.24,0,0,0-20.75-30.16c-14.6-15.68-31.18-23.62-49.26-23.62-25.23,0-47.24,10.58-63.65,30.61-9.28,11.32-16.6,25.6-21.49,41.62.45,0,.9,0,1.35,0a41,41,0,0,1,19.74,5.05c6.93-7.26,14.16-12.4,21.14-12.66a21.84,21.84,0,0,1,15.72,12.61,31.39,31.39,0,0,1,1.63,4.35A48,48,0,0,1,417.35,340c0,.67,0,1.35,0,2,0,.23,0,.46,0,.7,0,.45,0,.91-.08,1.37,0,.29-.05.57-.07.86s-.07.84-.12,1.27-.07.62-.11.93-.09.82-.15,1.24-.09.66-.14,1l-.18,1.22-.18,1c-.07.4-.14.81-.22,1.22s-.13.71-.2,1.06-.16.83-.25,1.24l-.24,1.09c-.09.41-.18.82-.28,1.24s-.17.75-.26,1.12-.21.83-.31,1.26-.2.75-.29,1.13l-.35,1.28-.31,1.15c-.12.43-.25.86-.37,1.29s-.23.79-.35,1.19-.26.86-.39,1.29-.24.8-.37,1.2l-.42,1.32-.39,1.22c-.15.44-.29.88-.44,1.33l-.42,1.23c-.15.45-.31.9-.47,1.36s-.28.82-.43,1.23-.33.92-.5,1.38-.29.83-.45,1.25l-.51,1.39-.47,1.26-.54,1.4c-.16.43-.32.86-.49,1.29l-.54,1.38c-.36.91-.72,1.83-1.09,2.75-.16.41-.32.81-.49,1.22l-.63,1.55c-.16.4-.32.8-.49,1.2s-.42,1-.64,1.54l-.51,1.24-.66,1.56c-.17.41-.34.82-.52,1.23s-.45,1.07-.68,1.6-.34.8-.52,1.2c-.23.55-.47,1.1-.71,1.66l-.51,1.16L397.8,405l-.51,1.16-.76,1.72L396,409q-.41.9-.81,1.83l-.44,1-.87,2c-.13.27-.25.55-.38.83-.32.73-.65,1.45-1,2.18l-.24.52c-1.1,2.47-2.22,4.94-3.34,7.43-12.31,27.32-26.26,58.28-33.89,88.52a142.23,142.23,0,0,0-3.57,48.77c2,20.32,5.94,32.38,12.4,37.94h0a1.14,1.14,0,0,0,.11.11l.42.36.31.26.1,0,.83.2c9.79,2.32,19.31,4.2,28.64,5.66l5.42.81q4.74.66,9.42,1.17t9.31.87q9.27.74,18.36.88l4.55,0h1.53c2.62,0,5.28.07,7.89.07,12.52,0,25-.56,37.66-1.69,7.61-.68,15.29-1.57,23.12-2.67l2-.28.17-.33.78-1.49c15-28.67,23.87-67.42,27.86-122A410.47,410.47,0,0,0,539.2,396.42Z"/><path d="M455.72,30a425.84,425.84,0,0,1,165.7,818A425.84,425.84,0,0,1,290,63.44,423,423,0,0,1,455.72,30m0-30C204,0,0,204,0,455.72S204,911.44,455.72,911.44s455.72-204,455.72-455.72S707.41,0,455.72,0Z"/><path d="M455.72,60.25A395.58,395.58,0,0,1,609.65,820.12,395.58,395.58,0,0,1,301.79,91.32,392.9,392.9,0,0,1,455.72,60.25m0-15.4c-226.92,0-410.87,184-410.87,410.87s184,410.87,410.87,410.87,410.87-184,410.87-410.87S682.63,44.85,455.72,44.85Z"/><path d="M216.24,337.79a267.07,267.07,0,0,1,477.16-3.62,101.57,101.57,0,0,1,15.91,9.27c-43.09-97.2-140.42-165-253.59-165-114.66,0-213.05,69.6-255.27,168.84A100.1,100.1,0,0,1,216.24,337.79Z"/><path d="M701.63,559.63a267,267,0,0,1-491.15,1.55,41.64,41.64,0,0,1-8,7.63C245.76,665.57,342.86,733,455.72,733c113.58,0,211.2-68.3,254.06-166.07A41.32,41.32,0,0,1,701.63,559.63Z"/><path d="M149.5,234.85l15-19.37L252,247.42l1.44,1.11-12.85,16.61-18.26-7.05-18,23.26,11.5,15.79-12,15.51-1.44-1.12Zm24.19,4.2,20.5,28.42,12.16-15.72Z"/><path d="M229.42,153.89q12.54-9.66,23.09-8.34t19.36,12.75q8.81,11.41,7.47,22.08t-13.86,20.31l-10,7.69,19.14,24.84-16.08,12.39L203.36,174Zm26.75,32a10.21,10.21,0,0,0,2.4-4.23,8.86,8.86,0,0,0-.18-4.82,17.89,17.89,0,0,0-3.15-5.7,16.86,16.86,0,0,0-4.58-4.33,8.76,8.76,0,0,0-4.57-1.34,10.27,10.27,0,0,0-4.7,1.23,34.78,34.78,0,0,0-5.18,3.38L229.78,175l15.38,20,6.43-5A34.36,34.36,0,0,0,256.17,185.86Z"/><path d="M310.6,107.44q14.52-6.27,24.43-2.39t15.63,17.11q5.73,13.25,1.81,23.24T334,161.68l-11.57,5,12.44,28.79-18.63,8.05-35.88-83ZM328.66,145A10.17,10.17,0,0,0,332,141.5a8.77,8.77,0,0,0,1-4.71,18,18,0,0,0-1.66-6.3,16.93,16.93,0,0,0-3.37-5.33,8.8,8.8,0,0,0-4.09-2.42,10.17,10.17,0,0,0-4.87,0,34,34,0,0,0-5.85,2L305.75,128l10,23.14,7.46-3.22A34.28,34.28,0,0,0,328.66,145Z"/><path d="M400.86,82.5q15.64-2.35,24.3,3.85T436,106.81q2.76,18.42-9.9,27.4l25.35,30.16.29,1.94-21.88,3.29-22.46-28.9-9.69,1.46,4.74,31.56-20.07,3L368.88,87.3ZM408.65,123a11.28,11.28,0,0,0,4.23-2.48,8.12,8.12,0,0,0,2.28-4.16,17.46,17.46,0,0,0,0-6.45,16.82,16.82,0,0,0-1.89-6,8.64,8.64,0,0,0-3.41-3.38,10.79,10.79,0,0,0-4.78-1.2,35,35,0,0,0-6.17.44l-7.48,1.12,3.71,24.64,7.48-1.12A34.25,34.25,0,0,0,408.65,123Z"/><path d="M475.5,168.54a28.63,28.63,0,0,1-11.05-8.94q-4.44-5.9-6.2-15.2t-.15-22.79q1.57-13.06,5.7-21.6a38.59,38.59,0,0,1,10-13.32,30.57,30.57,0,0,1,13-6.33,43.69,43.69,0,0,1,14.6-.64,49.42,49.42,0,0,1,14.74,4,28.7,28.7,0,0,1,11.12,9q4.44,5.88,6.21,15.2t.14,22.79q-1.58,13.06-5.77,21.58a39.19,39.19,0,0,1-10.06,13.31,30.47,30.47,0,0,1-13,6.34,43.7,43.7,0,0,1-14.6.64A48.63,48.63,0,0,1,475.5,168.54Zm24.33-12.93a10.77,10.77,0,0,0,5.81-3.74,24.06,24.06,0,0,0,4.15-8.67,96.07,96.07,0,0,0,2.79-15,90.45,90.45,0,0,0,.79-15.28,25,25,0,0,0-2-9.41,10.75,10.75,0,0,0-4.76-5,21,21,0,0,0-7.22-2.07,21.51,21.51,0,0,0-7.72.27,10.47,10.47,0,0,0-5.67,3.76,25,25,0,0,0-4.08,8.67,96.46,96.46,0,0,0-2.79,15,90.34,90.34,0,0,0-.79,15.27,24.93,24.93,0,0,0,2,9.41,10.86,10.86,0,0,0,4.69,5,20.81,20.81,0,0,0,7.15,2.06A22,22,0,0,0,499.83,155.61Z"/><path d="M562.7,91.73l19.8,8.17-7.52,67,42.07-52.75,19.15,7.9-.69,1.68-59.86,71.62-21.87-9L562,93.41Z"/><path d="M708.47,173.93l-10.22,13.51-31-23.47-11.66,15.41,20.89,15.79-10.05,13.29-20.88-15.79-12.42,16.41,32.61,24.66-10.22,13.51-48.91-37,54.55-72.13Z"/><path d="M751.46,221.56a55.88,55.88,0,0,1,7.7,13.17,31.29,31.29,0,0,1,2.3,14.54,35.67,35.67,0,0,1-5.41,15.59q-4.83,8-15.42,16.31t-19.56,11a35.57,35.57,0,0,1-16.44,1.47,31.41,31.41,0,0,1-13.55-5.76,55.89,55.89,0,0,1-10.91-10.67l-18.52-23.72,71.29-55.66Zm-53.69,49.19a14.48,14.48,0,0,0,7.47,3.32,19.14,19.14,0,0,0,9.58-1.62A70.65,70.65,0,0,0,738.44,254a19.08,19.08,0,0,0,3.88-8.9,14.44,14.44,0,0,0-1.4-8.05,44.72,44.72,0,0,0-5-8l-3.71-4.74-44.58,34.81,3.7,4.74A44.6,44.6,0,0,0,697.77,270.75Z"/><path d="M237.92,658.33l17.22,12-22.94,60L281.88,689l15.27,10.66-21.33,61.1,48.41-42.18,16.53,11.54-1,1.5L269.11,791,250.63,778l20.09-57.86-47,39.1-17.91-12.51,31-86.95Z"/><path d="M365.78,732.75,356.57,767l28.26,7.6,9.2-34.2,19.74,5.31L390.27,833l-19.74-5.31,9.86-36.64-28.26-7.6-9.85,36.63-19.74-5.31L346,727.44Z"/><path d="M449.05,746.62l-5.14,90.29-20.41-1.16,5.15-90.3Z"/><path d="M490.42,745.09,519,792.5,529,738l26-4.8,16.44,88.93-19.14,3.53-11.73-63.46L529.7,816.71l-13.49,2.49-29.48-47.09,11.72,63.47-19,3.51L463,750.16Z"/><path d="M605.87,787.9a40,40,0,0,0,12.09-4,16.63,16.63,0,0,0,6.79-5.65c1.37-2.16,1.43-4.65.2-7.48a8.38,8.38,0,0,0-4.75-4.57,18.66,18.66,0,0,0-7.55-.49l-10.32,1a36.87,36.87,0,0,1-17.74-2.14q-7.71-3.15-12.54-12.63a28.48,28.48,0,0,1-3.3-11.59,24,24,0,0,1,1.81-10.5,28.68,28.68,0,0,1,6.11-9,37.3,37.3,0,0,1,9.66-7,69.51,69.51,0,0,1,14.28-5.44,47.19,47.19,0,0,1,12.22-1.74l2.56,17.08a42.54,42.54,0,0,0-4.48.31q-2.6.3-5.38.85a51.47,51.47,0,0,0-5.56,1.41,31.57,31.57,0,0,0-5,2,12.63,12.63,0,0,0-5.79,5.14q-1.54,3,.48,7,1.9,3.75,4.92,4.57a24.6,24.6,0,0,0,8.14.42l12.83-1a35.3,35.3,0,0,1,16.1,2q6.92,2.78,11.28,11.39a30.37,30.37,0,0,1,3.53,12.19,24.38,24.38,0,0,1-2,11.06,29.67,29.67,0,0,1-6.95,9.66,48.14,48.14,0,0,1-11.41,7.83A56.55,56.55,0,0,1,610,804.18a43.77,43.77,0,0,1-12.43.74l-2.11-16.2A61.61,61.61,0,0,0,605.87,787.9Z"/><path d="M611.2,706.92,610,705.41l16.64-13.7,36.92,16.21-9-39.17,15.89-13.08,1.25,1.52,11.81,59.73,22.15,26.91-15.78,13-22.16-26.91Z"/><path d="M123.29,444.56l26,10.26a1,1,0,0,1,0,1.8l-26,10.26a1,1,0,0,0-.55.54l-10.26,26a1,1,0,0,1-1.8,0l-10.26-26a1,1,0,0,0-.54-.54l-26-10.26a1,1,0,0,1,0-1.8l26-10.26a1,1,0,0,0,.54-.55l10.26-26a1,1,0,0,1,1.8,0l10.26,26A1,1,0,0,0,123.29,444.56Z"/><path d="M809.53,444.56l26,10.26a1,1,0,0,1,0,1.8l-26,10.26a1,1,0,0,0-.55.54l-10.25,26a1,1,0,0,1-1.81,0l-10.26-26a.93.93,0,0,0-.54-.54l-26-10.26a1,1,0,0,1,0-1.8l26-10.26a.94.94,0,0,0,.54-.55l10.26-26a1,1,0,0,1,1.81,0L809,444A1,1,0,0,0,809.53,444.56Z"/></g></g></svg>