<svg xmlns="http://www.w3.org/2000/svg" viewBox="0 0 911.44 911.44"><g id="Layer_2" data-name="Layer 2"><g id="Layer_5" data-name="Layer 5"><path d="M622.24,571.53c-.53.45-1.06.92-1.61,1.35-32.54,25.42-66.81,39.65-102,42.31l-3.66.52-2,.28a441.91,441.91,0,0,1-62.17,4.46c-2.64,0-5.31,0-8-.07H441.4c-25,0-50.53-3.17-78-9.69l-.93-.22-2.32-.55-1-.84a194.5,194.5,0,0,1-50.35-21.62,117,117,0,0,1-22.7-17.93,166.35,166.35,0,0,0-1.05,19.58v.24a47.27,47.27,0,0,0,12.25,29c6.84,7.72,16.32,14.3,29,20.1,21,9.64,50.06,16.79,91.4,22.5a271.91,271.91,0,0,0,37.07,2.56c7.72,0,15.51-.34,23.15-1,64.09-5.66,106.34-18.67,129.16-39.77a51.37,51.37,0,0,0,16.21-39.7A115,115,0,0,0,622.24,571.53Z"/><circle cx="178.31" cy="535.46" r="31.21"/><circle cx="357.34" cy="361.26" r="31.19"/><path d="M357.34,402.45a41.18,41.18,0,0,1-38.67-55.37,109.27,109.27,0,0,0-48.14-11.22c-1.51,0-3,0-4.53.1-35.34,1.89-62.1,15.25-79.59,39.73-16.84,23.56-24.4,56.59-22.47,98.15v.06l.06.87c.55,8.79,1,15.69,1.85,21.41a41.06,41.06,0,0,1,12.46-1.93,41.7,41.7,0,0,1,5.39.36c8.76-25,19.77-46.71,56.41-46.71h1.36c6.55.51,13.94,9.65,20.85,25.76,7.08,16.53,13.78,40.71,19.37,69.92l0,.12,0,.13c3,11.5,14.45,24,32.35,35.14a176.33,176.33,0,0,0,34.62,16.34c-3.47-7.8-5.76-18.33-7.13-32.27a151.81,151.81,0,0,1,3.83-52.19c7.84-31.1,22-62.49,34.47-90.19,1.48-3.3,3-6.57,4.41-9.82q-4.87-6.32-9.63-12.23A41,41,0,0,1,357.34,402.45Z"/><path d="M733,501.43a31.34,31.34,0,1,0,31.34,31.33A31.37,31.37,0,0,0,733,501.43Z"/><path d="M714,464.14c4.84,6.88,8.84,16.23,12,27.9a42.1,42.1,0,0,1,7-.61,41.07,41.07,0,0,1,15.67,3.09,244.69,244.69,0,0,0,3.44-42.59v-.33c-3-35.82-14.43-65.6-33-86.12S675.44,334.15,646.39,334h-.14c-27.2.84-50.58,9-71.48,25a168.14,168.14,0,0,0-27.1,26.62,422.56,422.56,0,0,1,4.75,97.08c-3.91,53.39-12.48,92.25-26.87,121.69,30.49-3.88,60.34-17.1,88.92-39.44a45.12,45.12,0,0,0,13.75-17.88c4.59-10.83,7.77-23.36,10.84-35.49,8-31.4,15.49-61.06,45.47-63.15h.28C697,448.48,706.57,453.6,714,464.14Z"/><path d="M539.2,396.42q-.57-4-1.22-8a2,2,0,0,0,0-.24q-.6-3.71-1.28-7.38l-.15-.85c-.41-2.23-.85-4.44-1.3-6.64-.09-.45-.17-.9-.26-1.34q-.8-3.82-1.67-7.61v0a310.93,310.93,0,0,0-10.34-35.52c-.4-1.1-.8-2.18-1.2-3.25a217.22,217.22,0,0,0-10.6-23.9,137.24,137.24,0,0,0-20.75-30.16c-14.6-15.68-31.18-23.62-49.26-23.62-25.23,0-47.24,10.58-63.65,30.61-9.28,11.32-16.6,25.6-21.49,41.62.45,0,.9,0,1.35,0a41,41,0,0,1,19.74,5.05c6.93-7.26,14.16-12.4,21.14-12.66a21.84,21.84,0,0,1,15.72,12.61,31.39,31.39,0,0,1,1.63,4.35A48,48,0,0,1,417.35,340c0,.67,0,1.35,0,2,0,.23,0,.46,0,.7,0,.45,0,.91-.08,1.37,0,.29-.05.57-.07.86s-.07.84-.12,1.27-.07.62-.11.93-.09.82-.15,1.24-.09.66-.14,1l-.18,1.22-.18,1c-.07.4-.14.81-.22,1.22s-.13.71-.2,1.06-.16.83-.25,1.24l-.24,1.09c-.09.41-.18.82-.28,1.24s-.17.75-.26,1.12-.21.83-.31,1.26-.2.75-.29,1.13l-.35,1.28-.31,1.15c-.12.43-.25.86-.37,1.29s-.23.79-.35,1.19-.26.86-.39,1.29-.24.8-.37,1.2l-.42,1.32-.39,1.22c-.15.44-.29.88-.44,1.33l-.42,1.23c-.15.45-.31.9-.47,1.36s-.28.82-.43,1.23-.33.92-.5,1.38-.29.83-.45,1.25l-.51,1.39-.47,1.26-.54,1.4c-.16.43-.32.86-.49,1.29l-.54,1.38c-.36.91-.72,1.83-1.09,2.75-.16.41-.32.81-.49,1.22l-.63,1.55c-.16.4-.32.8-.49,1.2s-.42,1-.64,1.54l-.51,1.24-.66,1.56c-.17.41-.34.82-.52,1.23s-.45,1.07-.68,1.6-.34.8-.52,1.2c-.23.55-.47,1.1-.71,1.66l-.51,1.16L397.8,405l-.51,1.16-.76,1.72L396,409q-.41.9-.81,1.83l-.44,1-.87,2c-.13.27-.25.55-.38.83-.32.73-.65,1.45-1,2.18l-.24.52c-1.1,2.47-2.22,4.94-3.34,7.43-12.31,27.32-26.26,58.28-33.89,88.52a142.23,142.23,0,0,0-3.57,48.77c2,20.32,5.94,32.38,12.4,37.94h0a1.14,1.14,0,0,0,.11.11l.42.36.31.26.1,0,.83.2c9.79,2.32,19.31,4.2,28.64,5.66l5.42.81q4.74.66,9.42,1.17t9.31.87q9.27.74,18.36.88l4.55,0h1.53c2.62,0,5.28.07,7.89.07,12.52,0,25-.56,37.66-1.69,7.61-.68,15.29-1.57,23.12-2.67l2-.28.17-.33.78-1.49c15-28.67,23.87-67.42,27.86-122A410.47,410.47,0,0,0,539.2,396.42Z"/><path d="M455.72,30a425.84,425.84,0,0,1,165.7,818A425.84,425.84,0,0,1,290,63.44,423,423,0,0,1,455.72,30m0-30C204,0,0,204,0,455.72S204,911.44,455.72,911.44s455.72-204,455.72-455.72S707.41,0,455.72,0Z"/><path d="M455.72,60.25A395.58,395.58,0,0,1,609.65,820.12,395.58,395.58,0,0,1,301.79,91.32,392.9,392.9,0,0,1,455.72,60.25m0-15.4c-226.92,0-410.87,184-410.87,410.87s184,410.87,410.87,410.87,410.87-184,410.87-410.87S682.63,44.85,455.72,44.85Z"/><path d="M216.24,337.79a267.07,267.07,0,0,1,477.16-3.62,101.57,101.57,0,0,1,15.91,9.27c-43.09-97.2-140.42-165-253.59-165-114.66,0-213.05,69.6-255.27,168.84A100.1,100.1,0,0,1,216.24,337.79Z"/><path d="M701.63,559.63a267,267,0,0,1-491.15,1.55,41.64,41.64,0,0,1-8,7.63C245.76,665.57,342.86,733,455.72,733c113.58,0,211.2-68.3,254.06-166.07A41.32,41.32,0,0,1,701.63,559.63Z"/><path d="M256.27,225.84a40.13,40.13,0,0,0,11.11-6.25,16.66,16.66,0,0,0,5.58-6.84q1.4-3.57-1.22-7.38a8.45,8.45,0,0,0-5.54-3.59,18.67,18.67,0,0,0-7.5,1l-9.95,2.95A36.69,36.69,0,0,1,230.94,207q-8.17-1.6-14.72-10a28.35,28.35,0,0,1-5.44-10.75,23.84,23.84,0,0,1-.22-10.65,28.43,28.43,0,0,1,4.28-10,37,37,0,0,1,8.16-8.66,69.56,69.56,0,0,1,13-8.07,47.22,47.22,0,0,1,11.67-4l5.76,16.28a41.61,41.61,0,0,0-4.34,1.15q-2.49.8-5.12,1.86a53.08,53.08,0,0,0-5.19,2.45,32.14,32.14,0,0,0-4.55,2.92,12.59,12.59,0,0,0-4.71,6.15q-.94,3.23,1.8,6.76,2.58,3.31,5.7,3.55a24.49,24.49,0,0,0,8.07-1.14l12.4-3.44a35.14,35.14,0,0,1,16.19-1.08q7.32,1.41,13.25,9a30.19,30.19,0,0,1,5.77,11.29,24.27,24.27,0,0,1,.15,11.24,29.6,29.6,0,0,1-5,10.8,48.52,48.52,0,0,1-9.71,9.87A57,57,0,0,1,263.41,241a44.17,44.17,0,0,1-12.06,3.09l-5.15-15.5A62.8,62.8,0,0,0,256.27,225.84Z"/><path d="M328.59,99.08l7,15.41-35.43,16.13,8,17.58L332,137.36l6.9,15.16-23.83,10.85,8.52,18.73,37.21-16.94,7,15.42L312,206l-37.47-82.31Z"/><path d="M379.15,86l24.14-4.15,42.92,82.68.31,1.79-20.7,3.56-8.7-17.54-29,5L386,176.71,366.63,180l-.31-1.79Zm15,19.44-4.1,34.8,19.59-3.37Z"/><path d="M479.3,79.25l-5.12,72.89,35.33,2.49-1.22,17.31L452.57,168l6.34-90.22Z"/><path d="M557.19,186.26a28.66,28.66,0,0,1-8-11.75q-2.55-6.93-1.56-16.35t6.45-21.86q5.28-12.06,11.7-19a38.58,38.58,0,0,1,13.41-9.87,30.54,30.54,0,0,1,14.24-2.32,43.48,43.48,0,0,1,14.17,3.61,49.49,49.49,0,0,1,12.95,8.11,28.79,28.79,0,0,1,8.06,11.79q2.53,6.93,1.55,16.35t-6.45,21.86q-5.28,12-11.76,19a39.3,39.3,0,0,1-13.48,9.84A30.52,30.52,0,0,1,584.24,198a43.6,43.6,0,0,1-14.16-3.6A48.65,48.65,0,0,1,557.19,186.26Zm27-5.35a10.74,10.74,0,0,0,6.64-1.9,24.15,24.15,0,0,0,6.48-7.1,96.49,96.49,0,0,0,7-13.59,89.33,89.33,0,0,0,5.16-14.39,24.91,24.91,0,0,0,.77-9.6,10.76,10.76,0,0,0-3.11-6.18,21.27,21.27,0,0,0-6.32-4.07,21.88,21.88,0,0,0-7.46-2,10.53,10.53,0,0,0-6.52,2,25.21,25.21,0,0,0-6.41,7.13,96.86,96.86,0,0,0-7,13.58,89.72,89.72,0,0,0-5.16,14.4,24.89,24.89,0,0,0-.77,9.6,10.9,10.9,0,0,0,3,6.15,20.88,20.88,0,0,0,6.26,4A21.71,21.71,0,0,0,584.22,180.91Z"/><path d="M714.71,179.47,704.25,192.8,675.18,170l-13.92,17.74L681,203.18l-10.29,13.11L651,200.82l-21.18,27-16.08-12.61L669.55,144Z"/><path d="M227.45,636.09l16,18.55-48.7,79.41-1.38,1.19-13.72-15.9,10.54-16.5L171,680.59l-17.77,8.13-12.81-14.84,1.38-1.19ZM218.53,659,186.6,673.4l13,15.05Z"/><path d="M292.56,696.53q12.94,9.09,14.82,19.57T301,738.37q-8.29,11.8-18.87,13.69t-23.51-7.21l-10.3-7.25-18.05,25.64-16.6-11.68,52-74Zm-22.59,35a10.41,10.41,0,0,0,4.76,1,8.86,8.86,0,0,0,4.54-1.6,17.91,17.91,0,0,0,4.51-4.7,16.82,16.82,0,0,0,2.78-5.66,8.9,8.9,0,0,0-.07-4.76,10.38,10.38,0,0,0-2.58-4.12,34.49,34.49,0,0,0-4.76-4l-6.64-4.67L258,723.74l6.64,4.67A34.82,34.82,0,0,0,270,731.56Z"/><path d="M354.13,728.34q14.73,5.77,19,15.5T372.22,767q-5.27,13.43-15.09,17.78t-24.55-1.43l-11.73-4.59L309.41,808l-18.9-7.4,33-84.21ZM340.5,767.73a10.14,10.14,0,0,0,4.86-.12,8.85,8.85,0,0,0,4-2.63,18,18,0,0,0,3.26-5.64,16.74,16.74,0,0,0,1.36-6.16,8.83,8.83,0,0,0-1.2-4.6,10.31,10.31,0,0,0-3.48-3.4,34,34,0,0,0-5.56-2.7l-7.56-3L327,763l7.56,3A33.23,33.23,0,0,0,340.5,767.73Z"/><path d="M420.68,744.43q15.69,2,22.35,10.28t4.85,22.62q-2.31,18.48-16.94,23.7l16.24,35.9-.24,1.94L425,836.12l-13.81-33.9L401.46,801l-4,31.68-20.15-2.53,11.25-89.74Zm-3.46,41.12a11.22,11.22,0,0,0,4.74-1.24,8.17,8.17,0,0,0,3.32-3.39,17.36,17.36,0,0,0,1.76-6.2,16.9,16.9,0,0,0-.19-6.3,8.74,8.74,0,0,0-2.37-4.18,10.82,10.82,0,0,0-4.28-2.44,34,34,0,0,0-6.05-1.25l-7.51-.94-3.1,24.72,7.51.94A33.71,33.71,0,0,0,417.22,785.55Z"/><path d="M491.83,834.86a28.73,28.73,0,0,1-12.94-5.9q-5.76-4.59-9.81-13.16t-5.85-22q-1.75-13,.11-22.33a38.74,38.74,0,0,1,6.34-15.4,30.53,30.53,0,0,1,11-9.38,43.43,43.43,0,0,1,14-4.27,49.37,49.37,0,0,1,15.29.21,28.63,28.63,0,0,1,13,5.88q5.77,4.59,9.82,13.16t5.85,22q1.74,13.05-.18,22.35a39.3,39.3,0,0,1-6.41,15.4,30.43,30.43,0,0,1-11,9.38,43.69,43.69,0,0,1-14,4.28A48.88,48.88,0,0,1,491.83,834.86Zm20.32-18.62a10.75,10.75,0,0,0,4.69-5.07,24.21,24.21,0,0,0,1.84-9.43,95.78,95.78,0,0,0-1-15.26,91.1,91.1,0,0,0-3.07-15,25,25,0,0,0-4.33-8.61,10.79,10.79,0,0,0-5.86-3.66,24.44,24.44,0,0,0-14.92,2,10.47,10.47,0,0,0-4.55,5.06,25,25,0,0,0-1.77,9.42A95.67,95.67,0,0,0,484.18,791a90.21,90.21,0,0,0,3.07,15,25,25,0,0,0,4.33,8.6,10.82,10.82,0,0,0,5.79,3.67,20.76,20.76,0,0,0,7.45.21A22,22,0,0,0,512.15,816.24Z"/><path d="M530.68,739.62l19.77-8.24,42.13,52.67L585,717l19.12-8,.7,1.68,8.41,93-21.84,9.1-60-71.47Z"/><path d="M619.59,696.13l19.62-14.67L715,735.61l1.09,1.46-16.82,12.57L683.57,738,660,755.58l6.87,18.3-15.7,11.73-1.09-1.45Zm22.19,10.51,12.16,32.86,15.92-11.91Z"/><path d="M676.78,644.68l56,46.92,22.75-27.15,13.31,11.15L733,718.42l-69.34-58.07Z"/><path d="M123.29,444.56l26,10.26a1,1,0,0,1,0,1.8l-26,10.26a1,1,0,0,0-.55.54l-10.26,26a1,1,0,0,1-1.8,0l-10.26-26a1,1,0,0,0-.54-.54l-26-10.26a1,1,0,0,1,0-1.8l26-10.26a1,1,0,0,0,.54-.55l10.26-26a1,1,0,0,1,1.8,0l10.26,26A1,1,0,0,0,123.29,444.56Z"/><path d="M809.53,444.56l26,10.26a1,1,0,0,1,0,1.8l-26,10.26a1,1,0,0,0-.55.54l-10.25,26a1,1,0,0,1-1.81,0l-10.26-26a.93.93,0,0,0-.54-.54l-26-10.26a1,1,0,0,1,0-1.8l26-10.26a.94.94,0,0,0,.54-.55l10.26-26a1,1,0,0,1,1.81,0L809,444A1,1,0,0,0,809.53,444.56Z"/></g></g></svg>