<svg xmlns="http://www.w3.org/2000/svg" viewBox="0 0 637.24 435.68"><defs><style>.cls-1{fill:#fff;}.cls-2{fill:#1a8fd1;}.cls-3{fill:#e64e4e;}.cls-4{fill:#ac36e3;}</style></defs><g id="Layer_2" data-name="Layer 2"><g id="Layer_5" data-name="Layer 5"><path d="M620.76,261.89A250.34,250.34,0,0,0,625,214.06l0-1.18c-3.2-38-15.49-69.83-35.55-92C569,98.29,541.23,86.28,509.17,86.16h-.33c-29.36.92-54.63,9.77-77.24,27.07a168.1,168.1,0,0,0-23.34,21.89c-.73-3.71-1.52-7.37-2.33-10.91-9.78-42.4-25.45-76.08-45.32-97.41C344,9,325,0,304,0c-28.33,0-53,11.85-71.38,34.27C221.73,47.59,213.21,64.79,208,84.07a41,41,0,0,0-21.81,16.23A119.52,119.52,0,0,0,133.43,88c-1.65,0-3.35,0-5.07.12C89.85,90.15,60.51,104.92,41.17,132,23,157.43,14.81,192.59,16.85,236.53l.07,1c.65,10.51,1.14,18.34,2.42,25.14a41.2,41.2,0,1,0,37-3.42C64.46,236.15,73.22,220,103,220h.48c1.51.74,6.46,5.53,12.53,19.71,6.81,15.88,13.3,39.37,18.78,68l.16.69A43.9,43.9,0,0,0,140.55,321a156.91,156.91,0,0,0-2.6,30.39l0,.69a57,57,0,0,0,14.74,35.07c7.79,8.79,18.35,16.17,32.28,22.56,21.93,10.06,51.86,17.47,94.21,23.32a282.25,282.25,0,0,0,38.43,2.65c8,0,16.11-.35,24-1.05,66.38-5.87,110.56-19.73,135.07-42.4a61.33,61.33,0,0,0,19.41-47.4,126.57,126.57,0,0,0-2.4-20.28,54.36,54.36,0,0,0,6.58-11.41c4.88-11.52,8.16-24.44,11.33-36.94,7.32-28.87,13.65-53.82,36.16-55.6,9,0,15.28,3.45,20.89,11.42,4.19,5.95,7.74,14.36,10.57,25a41.35,41.35,0,1,0,41.48,4.83ZM261.43,123.38a41,41,0,0,0-13.25-30.23c6.11-6.19,10.08-8,12.18-8.42,2.86.87,8.84,3.47,9.89,17.71-.16,16.3-9.33,39.24-18.46,60.14-2-2.52-3.86-4.89-5.68-7.17A41.31,41.31,0,0,0,261.43,123.38Z"/><path class="cls-1" d="M486.16,345.19c-.72-19.95-6.91-38.22-13.5-55l-1-2.65-2.85.12-306.62,12.8-1.64.07-1.12,1.19c-4.27,4.57-11.44,17.08-11.44,49.5v.24a47.27,47.27,0,0,0,12.25,29c6.84,7.73,16.32,14.3,29,20.1,21,9.65,50.06,16.79,91.4,22.5a271.91,271.91,0,0,0,37.07,2.56c7.72,0,15.51-.34,23.15-1C404.88,419,447.13,406,470,384.89A51.37,51.37,0,0,0,486.16,345.19Z"/><circle class="cls-1" cx="41.21" cy="297.58" r="31.21"/><path class="cls-1" d="M595.9,263.55a31.34,31.34,0,1,0,31.34,31.34A31.37,31.37,0,0,0,595.9,263.55Z"/><circle class="cls-1" cx="220.24" cy="123.38" r="31.19"/><path class="cls-2" d="M320.17,268.54c-17.17-20.92-32.81-42-47.94-62.31-12.22-16.43-23.66-31.79-34.69-45.48a41.18,41.18,0,0,1-56-51.55A109.27,109.27,0,0,0,133.43,98c-1.51,0-3,0-4.53.1C93.56,100,66.8,113.34,49.31,137.81,32.47,161.38,24.91,194.4,26.84,236V236l.06.87c.54,8.78,1,15.68,1.85,21.4a41.06,41.06,0,0,1,12.46-1.93,40,40,0,0,1,5.39.37C55.35,231.69,66.37,210,103,210h1.36c6.54.52,13.94,9.66,20.85,25.76,7.08,16.53,13.78,40.71,19.36,69.92l0,.13,0,.12c3,11.5,14.45,24,32.35,35.14,18.36,11.44,41.58,20.16,65.38,24.55l2.33.43,1.49-1.84,74-90.64,2.07-2.53Z"/><path class="cls-3" d="M576.89,226.26c4.84,6.88,8.83,16.23,12,27.91a41,41,0,0,1,22.71,2.47A243.55,243.55,0,0,0,615,214.06v-.34c-3-35.82-14.43-65.6-33-86.12s-43.65-31.33-72.7-31.44h-.14c-27.2.84-50.58,9-71.48,25-17.77,13.59-30.87,30.7-41.76,45.79l-39.76,20.45-.61.31-.46.49-63.73,67.06L289,257.73l2,2.71,79.75,105.68,1.25,1.65,2.07-.06c35.45-1.11,70.19-14.76,103.24-40.59a45.12,45.12,0,0,0,13.75-17.88c4.59-10.82,7.77-23.36,10.84-35.49,8-31.4,15.49-61.06,45.47-63.15h.28C559.92,210.6,569.47,215.72,576.89,226.26Z"/><path class="cls-4" d="M396.18,126.45C386.8,85.76,372,53.66,353.29,33.62,338.68,18,322.11,10,304,10c-25.23,0-47.24,10.58-63.65,30.61-9.28,11.32-16.58,25.6-21.47,41.62.44,0,.88,0,1.33,0A40.88,40.88,0,0,1,240,87.25c6.93-7.27,14.16-12.4,21.14-12.67,11.81,2.74,18.07,11.76,19.13,27.53-.05,22-13.8,52.49-28.36,84.8-12.31,27.31-26.26,58.27-33.89,88.51a142.23,142.23,0,0,0-3.57,48.77c2,20.44,6,32.53,12.51,38.05l.73.62.93.22c26.71,6.34,51.48,9.42,75.7,9.42h1.53c2.62.05,5.28.07,7.89.07a431.27,431.27,0,0,0,60.78-4.36l2-.28,1-1.82c15-28.66,23.87-67.42,27.86-122A410,410,0,0,0,396.18,126.45Z"/></g></g></svg>